<mxfile host="app.diagrams.net" modified="2025-03-11T12:00:00.000Z" agent="Mozilla/5.0 (Windows NT 10.0; Win64; x64) AppleWebKit/537.36 (KHTML, like Gecko) Chrome/112.0.0.0 Safari/537.36" etag="abc123def456" version="24.0.1">
  <diagram id="prtHgNgQTEPvFCAcTncT" name="AWS Multi-language Support API Architecture">
    <mxGraphModel dx="1422" dy="762" grid="1" gridSize="10" guides="1" tooltips="1" connect="1" arrows="1" fold="1" page="1" pageScale="1" pageWidth="1100" pageHeight="850" math="0" shadow="0">
      <root>
        <mxCell id="0" />
        <mxCell id="1" parent="0" />
        
        <!-- Title -->
        <mxCell id="title" value="Multi-language Support API Architecture" style="text;html=1;strokeColor=none;fillColor=none;align=center;verticalAlign=middle;whiteSpace=wrap;rounded=0;fontSize=24;fontStyle=1" vertex="1" parent="1">
          <mxGeometry x="300" y="40" width="500" height="40" as="geometry" />
        </mxCell>
        
        <!-- AWS Cloud Border -->
        <mxCell id="aws_cloud" value="AWS Cloud" style="points=[[0,0],[0.25,0],[0.5,0],[0.75,0],[1,0],[1,0.25],[1,0.5],[1,0.75],[1,1],[0.75,1],[0.5,1],[0.25,1],[0,1],[0,0.75],[0,0.5],[0,0.25]];outlineConnect=0;gradientColor=none;html=1;whiteSpace=wrap;fontSize=12;fontStyle=1;container=1;pointerEvents=0;collapsible=0;recursiveResize=0;shape=mxgraph.aws4.group;grIcon=mxgraph.aws4.group_aws_cloud;strokeColor=#232F3E;fillColor=none;verticalAlign=top;align=left;spacingLeft=30;fontColor=#232F3E;dashed=0;" vertex="1" parent="1">
          <mxGeometry x="90" y="120" width="920" height="640" as="geometry" />
        </mxCell>
        
        <!-- Region Border -->
        <mxCell id="region" value="Region" style="points=[[0,0],[0.25,0],[0.5,0],[0.75,0],[1,0],[1,0.25],[1,0.5],[1,0.75],[1,1],[0.75,1],[0.5,1],[0.25,1],[0,1],[0,0.75],[0,0.5],[0,0.25]];outlineConnect=0;gradientColor=none;html=1;whiteSpace=wrap;fontSize=12;fontStyle=1;container=1;pointerEvents=0;collapsible=0;recursiveResize=0;shape=mxgraph.aws4.group;grIcon=mxgraph.aws4.group_region;strokeColor=#147EBA;fillColor=none;verticalAlign=top;align=left;spacingLeft=30;fontColor=#147EBA;dashed=1;" vertex="1" parent="aws_cloud">
          <mxGeometry x="40" y="50" width="840" height="560" as="geometry" />
        </mxCell>
        
        <!-- API Gateway -->
        <mxCell id="api_gateway" value="API Gateway" style="sketch=0;points=[[0,0,0],[0.25,0,0],[0.5,0,0],[0.75,0,0],[1,0,0],[0,1,0],[0.25,1,0],[0.5,1,0],[0.75,1,0],[1,1,0],[0,0.25,0],[0,0.5,0],[0,0.75,0],[1,0.25,0],[1,0.5,0],[1,0.75,0]];outlineConnect=0;fontColor=#232F3E;fillColor=#8C4FFF;strokeColor=#ffffff;dashed=0;verticalLabelPosition=bottom;verticalAlign=top;align=center;html=1;fontSize=12;fontStyle=0;aspect=fixed;shape=mxgraph.aws4.resourceIcon;resIcon=mxgraph.aws4.api_gateway;" vertex="1" parent="region">
          <mxGeometry x="110" y="240" width="78" height="78" as="geometry" />
        </mxCell>
        
        <!-- Lambda Function -->
        <mxCell id="lambda_function" value="Lambda Function" style="sketch=0;points=[[0,0,0],[0.25,0,0],[0.5,0,0],[0.75,0,0],[1,0,0],[0,1,0],[0.25,1,0],[0.5,1,0],[0.75,1,0],[1,1,0],[0,0.25,0],[0,0.5,0],[0,0.75,0],[1,0.25,0],[1,0.5,0],[1,0.75,0]];outlineConnect=0;fontColor=#232F3E;fillColor=#ED7100;strokeColor=#ffffff;dashed=0;verticalLabelPosition=bottom;verticalAlign=top;align=center;html=1;fontSize=12;fontStyle=0;aspect=fixed;shape=mxgraph.aws4.resourceIcon;resIcon=mxgraph.aws4.lambda;" vertex="1" parent="region">
          <mxGeometry x="381" y="240" width="78" height="78" as="geometry" />
        </mxCell>
        
        <!-- DynamoDB Table -->
        <mxCell id="dynamodb_table" value="DynamoDB&#xa;LanguageContent" style="sketch=0;points=[[0,0,0],[0.25,0,0],[0.5,0,0],[0.75,0,0],[1,0,0],[0,1,0],[0.25,1,0],[0.5,1,0],[0.75,1,0],[1,1,0],[0,0.25,0],[0,0.5,0],[0,0.75,0],[1,0.25,0],[1,0.5,0],[1,0.75,0]];outlineConnect=0;fontColor=#232F3E;fillColor=#C925D1;strokeColor=#ffffff;dashed=0;verticalLabelPosition=bottom;verticalAlign=top;align=center;html=1;fontSize=12;fontStyle=0;aspect=fixed;shape=mxgraph.aws4.resourceIcon;resIcon=mxgraph.aws4.dynamodb;" vertex="1" parent="region">
          <mxGeometry x="652" y="240" width="78" height="78" as="geometry" />
        </mxCell>
        
        <!-- IAM Role -->
        <mxCell id="iam_role" value="IAM Role" style="sketch=0;points=[[0,0,0],[0.25,0,0],[0.5,0,0],[0.75,0,0],[1,0,0],[0,1,0],[0.25,1,0],[0.5,1,0],[0.75,1,0],[1,1,0],[0,0.25,0],[0,0.5,0],[0,0.75,0],[1,0.25,0],[1,0.5,0],[1,0.75,0]];outlineConnect=0;fontColor=#232F3E;fillColor=#DD344C;strokeColor=#ffffff;dashed=0;verticalLabelPosition=bottom;verticalAlign=top;align=center;html=1;fontSize=12;fontStyle=0;aspect=fixed;shape=mxgraph.aws4.resourceIcon;resIcon=mxgraph.aws4.identity_and_access_management;" vertex="1" parent="region">
          <mxGeometry x="381" y="430" width="78" height="78" as="geometry" />
        </mxCell>
        
        <!-- User -->
        <mxCell id="user" value="User" style="sketch=0;outlineConnect=0;fontColor=#232F3E;gradientColor=none;fillColor=#232F3E;strokeColor=none;dashed=0;verticalLabelPosition=bottom;verticalAlign=top;align=center;html=1;fontSize=12;fontStyle=0;aspect=fixed;pointerEvents=1;shape=mxgraph.aws4.user;" vertex="1" parent="aws_cloud">
          <mxGeometry x="-40" y="279" width="78" height="78" as="geometry" />
        </mxCell>
        
        <!-- Connections -->
        <!-- User to API Gateway -->
        <mxCell id="user_to_api" value="" style="edgeStyle=orthogonalEdgeStyle;rounded=0;orthogonalLoop=1;jettySize=auto;html=1;" edge="1" parent="aws_cloud" source="user" target="api_gateway">
          <mxGeometry relative="1" as="geometry" />
        </mxCell>
        <mxCell id="user_to_api_label" value="HTTP GET&#xa;/message?message_id=X&amp;language=Y" style="edgeLabel;html=1;align=center;verticalAlign=middle;resizable=0;points=[];" vertex="1" connectable="0" parent="user_to_api">
          <mxGeometry x="-0.2" y="1" relative="1" as="geometry">
            <mxPoint x="27" y="-19" as="offset" />
          </mxGeometry>
        </mxCell>
        
        <!-- API Gateway to Lambda -->
        <mxCell id="api_to_lambda" value="" style="edgeStyle=orthogonalEdgeStyle;rounded=0;orthogonalLoop=1;jettySize=auto;html=1;" edge="1" parent="aws_cloud" source="api_gateway" target="lambda_function">
          <mxGeometry relative="1" as="geometry" />
        </mxCell>
        <mxCell id="api_to_lambda_label" value="Invoke" style="edgeLabel;html=1;align=center;verticalAlign=middle;resizable=0;points=[];" vertex="1" connectable="0" parent="api_to_lambda">
          <mxGeometry x="-0.0541" y="1" relative="1" as="geometry">
            <mxPoint y="-9" as="offset" />
          </mxGeometry>
        </mxCell>
        
        <!-- Lambda to DynamoDB -->
        <mxCell id="lambda_to_dynamodb" value="" style="edgeStyle=orthogonalEdgeStyle;rounded=0;orthogonalLoop=1;jettySize=auto;html=1;" edge="1" parent="aws_cloud" source="lambda_function" target="dynamodb_table">
          <mxGeometry relative="1" as="geometry" />
        </mxCell>
        <mxCell id="lambda_to_dynamodb_label" value="GetItem" style="edgeLabel;html=1;align=center;verticalAlign=middle;resizable=0;points=[];" vertex="1" connectable="0" parent="lambda_to_dynamodb">
          <mxGeometry x="-0.0204" y="-1" relative="1" as="geometry">
            <mxPoint y="-9" as="offset" />
          </mxGeometry>
        </mxCell>
        
        <!-- Lambda to IAM Role -->
        <mxCell id="iam_to_lambda" value="" style="edgeStyle=orthogonalEdgeStyle;rounded=0;orthogonalLoop=1;jettySize=auto;html=1;" edge="1" parent="aws_cloud" source="iam_role" target="lambda_function">
          <mxGeometry relative="1" as="geometry" />
        </mxCell>
        <mxCell id="iam_to_lambda_label" value="Provides&#xa;permissions" style="edgeLabel;html=1;align=center;verticalAlign=middle;resizable=0;points=[];" vertex="1" connectable="0" parent="iam_to_lambda">
          <mxGeometry x="0.0204" relative="1" as="geometry">
            <mxPoint x="31" as="offset" />
          </mxGeometry>
        </mxCell>
        
        <!-- Stack Deployment Info -->
        <mxCell id="stack_info" value="CloudFormation Stack: Multi-language Support API Stack" style="text;html=1;strokeColor=none;fillColor=none;align=left;verticalAlign=middle;whiteSpace=wrap;rounded=0;fontSize=14;fontStyle=1" vertex="1" parent="aws_cloud">
          <mxGeometry x="40" y="20" width="360" height="20" as="geometry" />
        </mxCell>
        
        <!-- Key Components -->
        <mxCell id="components_title" value="Key Components:" style="text;html=1;strokeColor=none;fillColor=none;align=left;verticalAlign=middle;whiteSpace=wrap;rounded=0;fontSize=14;fontStyle=1" vertex="1" parent="1">
          <mxGeometry x="90" y="780" width="150" height="20" as="geometry" />
        </mxCell>
        
        <mxCell id="components_list" value="1. API Gateway - Exposes /message endpoint with GET method&#xa;2. Lambda Function - Processes requests and retrieves content from DynamoDB&#xa;3. DynamoDB Table - Stores multi-language content with message_id and language as keys&#xa;4. IAM Role - Provides Lambda with permissions to access DynamoDB" style="text;html=1;strokeColor=none;fillColor=none;align=left;verticalAlign=top;whiteSpace=wrap;rounded=0;fontSize=12;" vertex="1" parent="1">
          <mxGeometry x="110" y="810" width="550" height="80" as="geometry" />
        </mxCell>
      </root>
    </mxGraphModel>
  </diagram>
</mxfile>
